#N canvas 145 132 499 382 10;
#X text 134 7 GREEN;
#X text 134 47 BLUE;
#X msg 54 -32 print 1c\$1w;
#X obj 83 -51 hsl 128 15 0 255 0 0 empty empty empty -2 -8 0 10 -258113
-1 -1 12700 1;
#X obj 83 -9 hsl 128 15 0 255 0 0 empty empty empty -2 -8 0 10 -4034
-1 -1 0 1;
#X obj 83 31 hsl 128 15 0 255 0 0 empty empty empty -2 -8 0 10 -4160
-1 -1 2000 1;
#X obj 83 113 hsl 128 15 0 255 0 0 empty empty empty -2 -8 0 10 -128992
-1 -1 0 1;
#X obj 3 -52 cnv 15 40 40 empty empty empty 20 12 0 14 -233017 -66577
0;
#X text 7 -42 LAMP1;
#X obj 83 72 hsl 128 15 0 255 0 0 empty empty empty -2 -8 0 10 -228856
-1 -1 12700 1;
#X obj 54 -52 int;
#X obj 54 -11 int;
#X obj 54 30 int;
#X obj 54 111 int;
#X obj 54 70 int;
#X msg 1 191 open 0;
#X msg 54 9 print 2c\$1w;
#X msg 54 50 print 3c\$1w;
#X msg 54 91 print 4c\$1w;
#X msg 54 131 print 5c\$1w;
#X text 134 -33 RED;
#X text 134 87 DIMMER;
#X text 134 127 SOUND/ON/STROBE;
#X text 79 151 1-5 snd ctrl /// 6-10 ON /// 11-255 strobe;
#X text 2 -78 works well with the arduino SerialToDmx frimware;
#X msg 1 167 close;
#X text 2 -95 DMX light: eurolite LED floor SLS-400 RGB DMX;
#X obj 54 246 comport 0 9600;
#X obj 171 188 hsl 128 15 0 255 0 0 empty empty empty -2 -8 0 10 -128992
-1 -1 0 1;
#X obj 142 186 int;
#X text 222 202 SOUND/ON/STROBE;
#X msg 142 206 print 6c\$1w;
#X connect 2 0 27 0;
#X connect 3 0 10 0;
#X connect 4 0 11 0;
#X connect 5 0 12 0;
#X connect 6 0 13 0;
#X connect 9 0 14 0;
#X connect 10 0 2 0;
#X connect 11 0 16 0;
#X connect 12 0 17 0;
#X connect 13 0 19 0;
#X connect 14 0 18 0;
#X connect 15 0 27 0;
#X connect 16 0 27 0;
#X connect 17 0 27 0;
#X connect 18 0 27 0;
#X connect 19 0 27 0;
#X connect 25 0 27 0;
#X connect 28 0 29 0;
#X connect 29 0 31 0;
#X connect 31 0 27 0;
