#N canvas 280 51 970 689 10;
#X declare -lib mrpeach;
#X msg 1 297 close;
#X obj 54 374 comport 0 115200;
#X obj 83 288 r lamp2;
#X obj 83 314 r lamp3;
#N canvas 42 298 388 283 lamp-01 0;
#X obj 232 -51 inlet;
#X obj 281 -52 inlet;
#X obj 326 -51 inlet;
#X obj 15 -17 cnv 15 40 40 empty empty empty 20 12 0 14 -233017 -66577
0;
#X text 146 39 GREEN;
#X text 146 77 BLUE;
#X obj 95 -16 hsl 128 15 0 255 0 0 empty empty empty -2 -8 0 10 -258113
-1 -1 12700 1;
#X obj 95 24 hsl 128 15 0 255 0 0 empty empty empty -2 -8 0 10 -4034
-1 -1 0 1;
#X obj 95 62 hsl 128 15 0 255 0 0 empty empty empty -2 -8 0 10 -4160
-1 -1 12700 1;
#X obj 95 140 hsl 128 15 0 255 0 0 empty empty empty -2 -8 0 10 -128992
-1 -1 0 1;
#X obj 95 101 hsl 128 15 0 255 0 0 empty empty empty -2 -8 0 10 -228856
-1 -1 12700 1;
#X obj 66 -17 int;
#X obj 66 22 int;
#X obj 66 61 int;
#X obj 66 138 int;
#X obj 66 99 int;
#X text 146 1 RED;
#X text 146 117 DIMMER;
#X text 146 155 SOUND/ON/STROBE;
#X msg 66 2 print 89c\$1w;
#X obj 236 30 loadbang;
#X msg 236 56 255 1000;
#X obj 236 78 line 0 1000;
#X text 19 -7 LAMP1;
#X msg 66 41 print 90c\$1w;
#X msg 66 80 print 91c\$1w;
#X msg 66 119 print 92c\$1w;
#X msg 66 157 print 93c\$1w;
#X obj 66 183 s lamp1;
#X connect 0 0 6 0;
#X connect 1 0 7 0;
#X connect 2 0 8 0;
#X connect 6 0 11 0;
#X connect 7 0 12 0;
#X connect 8 0 13 0;
#X connect 9 0 14 0;
#X connect 10 0 15 0;
#X connect 11 0 19 0;
#X connect 12 0 24 0;
#X connect 13 0 25 0;
#X connect 14 0 27 0;
#X connect 15 0 26 0;
#X connect 19 0 28 0;
#X connect 20 0 21 0;
#X connect 21 0 22 0;
#X connect 22 0 10 0;
#X connect 24 0 28 0;
#X connect 25 0 28 0;
#X connect 26 0 28 0;
#X connect 27 0 28 0;
#X restore 138 -175 pd lamp-01;
#X obj 84 267 r lamp1;
#N canvas 622 204 450 300 lamp-02 0;
#X text 143 -52 GREEN;
#X text 143 -14 BLUE;
#X obj 92 -107 hsl 128 15 0 255 0 0 empty empty empty -2 -8 0 10 -258113
-1 -1 12700 1;
#X obj 92 -67 hsl 128 15 0 255 0 0 empty empty empty -2 -8 0 10 -4034
-1 -1 0 1;
#X obj 92 -29 hsl 128 15 0 255 0 0 empty empty empty -2 -8 0 10 -4160
-1 -1 12700 1;
#X obj 92 49 hsl 128 15 0 255 0 0 empty empty empty -2 -8 0 10 -128992
-1 -1 0 1;
#X obj 12 -108 cnv 15 40 40 empty empty empty 20 12 0 14 -233017 -66577
0;
#X obj 92 10 hsl 128 15 0 255 0 0 empty empty empty -2 -8 0 10 -228856
-1 -1 12700 1;
#X obj 63 -108 int;
#X obj 63 -69 int;
#X obj 63 -30 int;
#X obj 63 47 int;
#X obj 63 8 int;
#X text 143 -90 RED;
#X text 143 26 DIMMER;
#X text 143 64 SOUND/ON/STROBE;
#X msg 63 -89 print 142c\$1w;
#X msg 63 -50 print 143c\$1w;
#X msg 63 -11 print 144c\$1w;
#X msg 63 28 print 145c\$1w;
#X msg 63 66 print 146c\$1w;
#X text 16 -98 LAMP2;
#X obj 63 92 s lamp2;
#X obj 243 -139 inlet;
#X obj 281 -139 inlet;
#X obj 319 -138 inlet;
#X obj 242 -76 loadbang;
#X msg 242 -50 255 1000;
#X obj 242 -28 line 0 1000;
#X connect 2 0 8 0;
#X connect 3 0 9 0;
#X connect 4 0 10 0;
#X connect 5 0 11 0;
#X connect 7 0 12 0;
#X connect 8 0 16 0;
#X connect 9 0 17 0;
#X connect 10 0 18 0;
#X connect 11 0 20 0;
#X connect 12 0 19 0;
#X connect 16 0 22 0;
#X connect 17 0 22 0;
#X connect 18 0 22 0;
#X connect 19 0 22 0;
#X connect 20 0 22 0;
#X connect 23 0 2 0;
#X connect 24 0 3 0;
#X connect 25 0 4 0;
#X connect 26 0 27 0;
#X connect 27 0 28 0;
#X connect 28 0 7 0;
#X restore 242 -175 pd lamp-02;
#N canvas 739 153 450 300 lamp-03 0;
#X text 140 -94 GREEN;
#X text 140 -56 BLUE;
#X obj 89 -149 hsl 128 15 0 255 0 0 empty empty empty -2 -8 0 10 -258113
-1 -1 12700 1;
#X obj 89 -109 hsl 128 15 0 255 0 0 empty empty empty -2 -8 0 10 -4034
-1 -1 0 1;
#X obj 89 -71 hsl 128 15 0 255 0 0 empty empty empty -2 -8 0 10 -4160
-1 -1 12700 1;
#X obj 89 7 hsl 128 15 0 255 0 0 empty empty empty -2 -8 0 10 -128992
-1 -1 0 1;
#X obj 89 -32 hsl 128 15 0 255 0 0 empty empty empty -2 -8 0 10 -228856
-1 -1 12700 1;
#X obj 60 -150 int;
#X obj 60 -111 int;
#X obj 60 -72 int;
#X obj 60 5 int;
#X obj 60 -34 int;
#X text 140 -132 RED;
#X text 140 -16 DIMMER;
#X text 140 22 SOUND/ON/STROBE;
#X msg 60 -131 print 94c\$1w;
#X msg 60 -92 print 95c\$1w;
#X msg 60 -53 print 96c\$1w;
#X msg 60 -14 print 97c\$1w;
#X msg 60 24 print 98c\$1w;
#X obj 60 51 s lamp3;
#X obj 9 -150 cnv 15 40 40 empty empty empty 20 12 0 14 -233017 -66577
0;
#X text 13 -140 LAMP3;
#X obj 238 -178 inlet;
#X obj 233 -110 loadbang;
#X msg 233 -84 255 1000;
#X obj 233 -62 line 0 1000;
#X obj 278 -178 inlet;
#X obj 318 -178 inlet;
#X connect 2 0 7 0;
#X connect 3 0 8 0;
#X connect 4 0 9 0;
#X connect 5 0 10 0;
#X connect 6 0 11 0;
#X connect 7 0 15 0;
#X connect 8 0 16 0;
#X connect 9 0 17 0;
#X connect 10 0 19 0;
#X connect 11 0 18 0;
#X connect 15 0 20 0;
#X connect 16 0 20 0;
#X connect 17 0 20 0;
#X connect 18 0 20 0;
#X connect 19 0 20 0;
#X connect 23 0 2 0;
#X connect 24 0 25 0;
#X connect 25 0 26 0;
#X connect 26 0 6 0;
#X connect 27 0 3 0;
#X connect 28 0 4 0;
#X restore 346 -175 pd lamp-03;
#N canvas 675 112 572 551 scanner-01 0;
#X obj 153 113 hsl 128 15 45 140 0 0 empty empty empty -2 -8 0 10 -258113
-1 -1 6524 1;
#X obj 153 157 hsl 128 15 90 200 0 0 empty empty empty -2 -8 0 10 -4034
-1 -1 6524 1;
#X obj 153 197 hsl 128 15 0 255 0 0 empty empty empty -2 -8 0 10 -4160
-1 -1 5976 1;
#X obj 153 279 hsl 128 15 0 255 0 0 empty empty empty -2 -8 0 10 -128992
-1 -1 0 1;
#X obj 153 238 hsl 128 15 0 255 0 0 empty empty empty -2 -8 0 10 -228856
-1 -1 3237 1;
#X obj 124 114 int;
#X obj 124 155 int;
#X obj 124 196 int;
#X obj 124 277 int;
#X obj 124 236 int;
#X obj 152 322 hsl 128 15 0 255 0 0 empty empty empty -2 -8 0 10 -128992
-1 -1 4283 1;
#X obj 123 320 int;
#X text 212 340 DIMMER/STROBE/PROG;
#X text 213 297 GOBO ROTATION;
#X text 206 256 GOBO WHEEL;
#X text 206 215 COLOUR WHEEL;
#X text 206 174 TILT;
#X text 206 134 PAN;
#N canvas 116 143 449 300 slider-inverter 0;
#X obj 125 99 mod 2;
#X floatatom 125 120 5 0 0 0 - - -;
#X obj 202 120 -;
#X obj 92 143 spigot;
#X obj 158 195 hsl 128 15 0 255 0 0 empty empty empty -2 -8 0 10 -262144
-1 -1 6524 1;
#X msg 235 99 1;
#X obj 235 120 -;
#X obj 202 143 spigot;
#X obj 140 -7 inlet;
#X obj 178 257 outlet;
#X floatatom 90 175 5 0 0 0 - - -;
#X floatatom 209 171 5 0 0 0 - - -;
#X floatatom 70 30 8 0 0 0 - - -;
#X obj 125 65 / 255;
#X obj 172 64 mod 255;
#X msg 202 89 255;
#X floatatom 196 31 5 0 0 0 - - -;
#X connect 0 0 1 0;
#X connect 1 0 3 1;
#X connect 1 0 6 1;
#X connect 1 0 5 0;
#X connect 2 0 7 0;
#X connect 3 0 4 0;
#X connect 3 0 10 0;
#X connect 4 0 9 0;
#X connect 5 0 6 0;
#X connect 6 0 7 1;
#X connect 7 0 4 0;
#X connect 7 0 11 0;
#X connect 8 0 12 0;
#X connect 8 0 13 0;
#X connect 8 0 14 0;
#X connect 13 0 0 0;
#X connect 14 0 2 1;
#X connect 14 0 3 0;
#X connect 14 0 15 0;
#X connect 15 0 2 0;
#X connect 16 0 13 0;
#X connect 16 0 14 0;
#X restore 127 17 pd slider-inverter;
#X floatatom 127 61 5 0 0 0 - - -;
#X obj 159 -23 r data;
#X msg 124 134 print 113c\$1w;
#X msg 124 175 print 114c\$1w;
#X msg 124 216 print 115c\$1w;
#X msg 124 257 print 116c\$1w;
#X msg 124 297 print 117c\$1w;
#X msg 124 339 print 118c\$1w;
#X obj 186 86 maxlib/scale 0 255 90 200;
#X obj 187 59 maxlib/scale 0 255 45 140;
#X msg -91 305 86;
#X text -95 323 dimmer open;
#X obj -91 -81 loadbang;
#X obj 11 68 f;
#X obj 11 -5 bng 25 250 50 0 empty change_sms_3 colours 0 -7 0 10 -4160
-1 -1;
#X floatatom 11 181 5 0 0 0 - - -;
#X obj 11 97 +;
#X floatatom 11 125 5 0 0 0 - - -;
#X msg 41 51 0;
#X msg 41 80 12;
#X obj 11 152 mod 144;
#X obj -62 154 bng 25 250 50 0 empty strobe_1 strobe 0 -7 0 10 -204800
-1 -1;
#X obj -13 234 delay 1000;
#X msg -76 190 120;
#X msg -13 262 86;
#X obj -76 284 s strobe;
#X obj 49 277 r strobe;
#X obj -76 235 *;
#X obj -61 212 r strobe_r;
#X obj 44 207 r strobe_d;
#X floatatom -67 259 5 0 0 0 - - -;
#X floatatom 57 234 5 0 0 0 - - -;
#X obj -34 45 inlet;
#X obj 124 398 s scanner1;
#X msg 149 -64 65;
#X obj 185 -62 inlet;
#X obj 17 353 inlet;
#X connect 0 0 5 0;
#X connect 1 0 6 0;
#X connect 2 0 7 0;
#X connect 3 0 8 0;
#X connect 4 0 9 0;
#X connect 5 0 21 0;
#X connect 6 0 22 0;
#X connect 7 0 23 0;
#X connect 8 0 25 0;
#X connect 9 0 24 0;
#X connect 10 0 11 0;
#X connect 11 0 26 0;
#X connect 18 0 19 0;
#X connect 18 0 27 0;
#X connect 18 0 28 0;
#X connect 20 0 18 0;
#X connect 21 0 52 0;
#X connect 22 0 52 0;
#X connect 23 0 52 0;
#X connect 24 0 52 0;
#X connect 25 0 52 0;
#X connect 26 0 52 0;
#X connect 27 0 1 0;
#X connect 28 0 0 0;
#X connect 29 0 10 0;
#X connect 31 0 29 0;
#X connect 31 0 37 0;
#X connect 31 0 38 0;
#X connect 31 0 53 0;
#X connect 32 0 35 0;
#X connect 33 0 32 0;
#X connect 34 0 2 0;
#X connect 35 0 32 1;
#X connect 35 0 36 0;
#X connect 36 0 39 0;
#X connect 37 0 32 1;
#X connect 38 0 35 1;
#X connect 39 0 34 0;
#X connect 40 0 42 0;
#X connect 40 0 41 0;
#X connect 41 0 43 0;
#X connect 42 0 46 0;
#X connect 43 0 44 0;
#X connect 45 0 10 0;
#X connect 46 0 44 0;
#X connect 46 0 49 0;
#X connect 47 0 46 1;
#X connect 48 0 41 1;
#X connect 48 0 50 0;
#X connect 51 0 32 0;
#X connect 53 0 4 0;
#X connect 54 0 4 0;
#X connect 55 0 10 0;
#X restore 138 67 pd scanner-01;
#X obj 138 36 bng 25 250 50 0 empty change_sms_2 empty 17 7 0 10 -4160
-1 -1;
#N canvas 881 201 388 283 lamp-00 0;
#X obj 232 -51 inlet;
#X obj 281 -52 inlet;
#X obj 326 -51 inlet;
#X obj 15 -17 cnv 15 40 40 empty empty empty 20 12 0 14 -233017 -66577
0;
#X text 146 39 GREEN;
#X text 146 77 BLUE;
#X obj 95 -16 hsl 128 15 0 255 0 0 empty empty empty -2 -8 0 10 -258113
-1 -1 0 1;
#X obj 95 24 hsl 128 15 0 255 0 0 empty empty empty -2 -8 0 10 -4034
-1 -1 0 1;
#X obj 95 62 hsl 128 15 0 255 0 0 empty empty empty -2 -8 0 10 -4160
-1 -1 0 1;
#X obj 95 140 hsl 128 15 0 255 0 0 empty empty empty -2 -8 0 10 -128992
-1 -1 0 1;
#X obj 95 101 hsl 128 15 0 255 0 0 empty empty empty -2 -8 0 10 -228856
-1 -1 12700 1;
#X obj 66 -17 int;
#X obj 66 22 int;
#X obj 66 61 int;
#X obj 66 138 int;
#X obj 66 99 int;
#X text 146 1 RED;
#X text 146 117 DIMMER;
#X text 146 155 SOUND/ON/STROBE;
#X obj 236 30 loadbang;
#X msg 236 56 255 1000;
#X obj 236 78 line 0 1000;
#X text 19 -7 LAMP1;
#X obj 66 183 s lamp1;
#X msg 66 2 print 1c\$1w;
#X msg 66 41 print 2c\$1w;
#X msg 66 80 print 3c\$1w;
#X msg 66 119 print 4c\$1w;
#X msg 66 157 print 5c\$1w;
#X connect 0 0 6 0;
#X connect 1 0 7 0;
#X connect 2 0 8 0;
#X connect 6 0 11 0;
#X connect 7 0 12 0;
#X connect 8 0 13 0;
#X connect 9 0 14 0;
#X connect 10 0 15 0;
#X connect 11 0 24 0;
#X connect 12 0 25 0;
#X connect 13 0 26 0;
#X connect 14 0 28 0;
#X connect 15 0 27 0;
#X connect 19 0 20 0;
#X connect 20 0 21 0;
#X connect 21 0 10 0;
#X connect 24 0 23 0;
#X connect 25 0 23 0;
#X connect 26 0 23 0;
#X connect 27 0 23 0;
#X connect 28 0 23 0;
#X restore 22 54 pd lamp-00;
#X msg 54 223 devices;
#X obj 138 -48 bng 25 250 50 0 empty empty empty 17 7 0 10 -4160 -1
-1;
#X obj 138 -135 bng 25 250 50 0 empty empty empty 17 7 0 10 -4160 -1
-1;
#X obj 310 35 bng 25 250 50 0 empty empty empty 17 7 0 10 -4160 -1
-1;
#X obj 310 -49 bng 25 250 50 0 empty empty empty 17 7 0 10 -4160 -1
-1;
#X obj 310 -136 bng 25 250 50 0 empty empty empty 17 7 0 10 -4160 -1
-1;
#N canvas 506 64 455 528 scanner-02 0;
#X obj 156 123 hsl 128 15 22 190 0 0 empty empty empty -2 -8 0 10 -258113
-1 -1 6524 1;
#X obj 156 167 hsl 128 15 67 220 0 0 empty empty empty -2 -8 0 10 -4034
-1 -1 6524 1;
#X obj 156 207 hsl 128 15 0 255 0 0 empty empty empty -2 -8 0 10 -4160
-1 -1 1793 1;
#X obj 156 289 hsl 128 15 0 255 0 0 empty empty empty -2 -8 0 10 -128992
-1 -1 0 1;
#X obj 156 248 hsl 128 15 0 255 0 0 empty empty empty -2 -8 0 10 -228856
-1 -1 3237 1;
#X obj 127 124 int;
#X obj 127 165 int;
#X obj 127 206 int;
#X obj 127 287 int;
#X obj 127 246 int;
#X obj 155 332 hsl 128 15 0 255 0 0 empty empty empty -2 -8 0 10 -128992
-1 -1 4283 1;
#X obj 126 330 int;
#X text 215 350 DIMMER/STROBE/PROG;
#X text 216 307 GOBO ROTATION;
#X text 209 266 GOBO WHEEL;
#X text 209 225 COLOUR WHEEL;
#X text 209 184 TILT;
#X text 209 144 PAN;
#N canvas 116 145 449 300 slider-inverter 0;
#X obj 125 99 mod 2;
#X floatatom 125 120 5 0 0 0 - - -;
#X obj 202 120 -;
#X obj 92 143 spigot;
#X obj 158 195 hsl 128 15 0 255 0 0 empty empty empty -2 -8 0 10 -262144
-1 -1 6524 1;
#X msg 235 99 1;
#X obj 235 120 -;
#X obj 202 143 spigot;
#X obj 140 -7 inlet;
#X obj 178 257 outlet;
#X floatatom 90 175 5 0 0 0 - - -;
#X floatatom 209 171 5 0 0 0 - - -;
#X floatatom 70 30 8 0 0 0 - - -;
#X obj 125 65 / 255;
#X obj 172 64 mod 255;
#X msg 202 89 255;
#X floatatom 196 31 5 0 0 0 - - -;
#X connect 0 0 1 0;
#X connect 1 0 3 1;
#X connect 1 0 6 1;
#X connect 1 0 5 0;
#X connect 2 0 7 0;
#X connect 3 0 4 0;
#X connect 3 0 10 0;
#X connect 4 0 9 0;
#X connect 5 0 6 0;
#X connect 6 0 7 1;
#X connect 7 0 4 0;
#X connect 7 0 11 0;
#X connect 8 0 12 0;
#X connect 8 0 13 0;
#X connect 8 0 14 0;
#X connect 13 0 0 0;
#X connect 14 0 2 1;
#X connect 14 0 3 0;
#X connect 14 0 15 0;
#X connect 15 0 2 0;
#X connect 16 0 13 0;
#X connect 16 0 14 0;
#X restore 129 13 pd slider-inverter;
#X floatatom 129 57 5 0 0 0 - - -;
#X obj 161 -27 r data;
#X msg 127 144 print 61c\$1w;
#X msg 127 185 print 62c\$1w;
#X msg 127 226 print 63c\$1w;
#X msg 127 267 print 64c\$1w;
#X msg 127 307 print 65c\$1w;
#X msg 127 349 print 66c\$1w;
#X obj 190 69 maxlib/scale 0 255 22 190;
#X obj 190 97 maxlib/scale 0 255 67 220;
#X msg -81 315 86;
#X text -85 333 dimmer open;
#X obj -81 -71 loadbang;
#X obj 21 78 f;
#X obj 21 5 bng 25 250 50 0 empty change_sms_3 colours 0 -7 0 10 -4160
-1 -1;
#X floatatom 21 191 5 0 0 0 - - -;
#X obj 21 107 +;
#X floatatom 21 135 5 0 0 0 - - -;
#X msg 51 61 0;
#X msg 51 90 12;
#X obj 21 162 mod 144;
#X obj -52 164 bng 25 250 50 0 empty strobe_2 strobe 0 -7 0 10 -204800
-1 -1;
#X obj -3 244 delay 1000;
#X msg -66 200 120;
#X msg -3 272 86;
#X obj -66 294 s strobe;
#X obj 59 287 r strobe;
#X obj -66 245 *;
#X obj -51 222 r strobe_r;
#X obj 54 217 r strobe_d;
#X floatatom -57 269 5 0 0 0 - - -;
#X floatatom 67 244 5 0 0 0 - - -;
#X obj -25 61 inlet;
#X msg 153 -54 65;
#X obj 127 389 s scanner2;
#X obj 186 -53 inlet;
#X obj 16 308 inlet;
#X connect 0 0 5 0;
#X connect 1 0 6 0;
#X connect 2 0 7 0;
#X connect 3 0 8 0;
#X connect 4 0 9 0;
#X connect 5 0 21 0;
#X connect 6 0 22 0;
#X connect 7 0 23 0;
#X connect 8 0 25 0;
#X connect 9 0 24 0;
#X connect 10 0 11 0;
#X connect 11 0 26 0;
#X connect 18 0 19 0;
#X connect 18 0 27 0;
#X connect 18 0 28 0;
#X connect 20 0 18 0;
#X connect 21 0 53 0;
#X connect 22 0 53 0;
#X connect 23 0 53 0;
#X connect 24 0 53 0;
#X connect 25 0 53 0;
#X connect 26 0 53 0;
#X connect 27 0 0 0;
#X connect 28 0 1 0;
#X connect 29 0 10 0;
#X connect 31 0 29 0;
#X connect 31 0 37 0;
#X connect 31 0 38 0;
#X connect 31 0 52 0;
#X connect 32 0 35 0;
#X connect 33 0 32 0;
#X connect 34 0 2 0;
#X connect 35 0 32 1;
#X connect 35 0 36 0;
#X connect 36 0 39 0;
#X connect 37 0 32 1;
#X connect 38 0 35 1;
#X connect 39 0 34 0;
#X connect 40 0 42 0;
#X connect 40 0 41 0;
#X connect 41 0 43 0;
#X connect 42 0 46 0;
#X connect 43 0 44 0;
#X connect 45 0 10 0;
#X connect 46 0 44 0;
#X connect 46 0 49 0;
#X connect 47 0 46 1;
#X connect 48 0 41 1;
#X connect 48 0 50 0;
#X connect 51 0 32 0;
#X connect 52 0 4 0;
#X connect 54 0 4 0;
#X connect 55 0 10 0;
#X restore 138 -17 pd scanner-02;
#N canvas 739 65 471 507 scanner-03 0;
#X obj 135 103 hsl 128 15 0 255 0 0 empty empty empty -2 -8 0 10 -258113
-1 -1 5884 1;
#X obj 135 147 hsl 128 15 0 255 0 0 empty empty empty -2 -8 0 10 -4034
-1 -1 8704 1;
#X obj 135 187 hsl 128 15 0 255 0 0 empty empty empty -2 -8 0 10 -4160
-1 -1 1793 1;
#X obj 135 269 hsl 128 15 0 255 0 0 empty empty empty -2 -8 0 10 -128992
-1 -1 0 1;
#X obj 135 228 hsl 128 15 0 255 0 0 empty empty empty -2 -8 0 10 -228856
-1 -1 3237 1;
#X obj 106 104 int;
#X obj 106 145 int;
#X obj 106 186 int;
#X obj 106 267 int;
#X obj 106 226 int;
#X obj 135 312 hsl 128 15 0 255 0 0 empty empty empty -2 -8 0 10 -128992
-1 -1 4283 1;
#X obj 106 310 int;
#X text 194 330 DIMMER/STROBE/PROG;
#X text 195 287 GOBO ROTATION;
#X text 188 246 GOBO WHEEL;
#X text 188 205 COLOUR WHEEL;
#X text 188 164 TILT;
#X text 188 124 PAN;
#X msg -101 295 86;
#X text -105 313 dimmer open;
#N canvas 116 141 449 300 slider-inverter 0;
#X obj 125 99 mod 2;
#X floatatom 125 120 5 0 0 0 - - -;
#X obj 202 120 -;
#X obj 92 143 spigot;
#X obj 158 195 hsl 128 15 0 255 0 0 empty empty empty -2 -8 0 10 -262144
-1 -1 6524 1;
#X msg 235 99 1;
#X obj 235 120 -;
#X obj 202 143 spigot;
#X obj 140 -7 inlet;
#X obj 178 257 outlet;
#X floatatom 90 175 5 0 0 0 - - -;
#X floatatom 209 171 5 0 0 0 - - -;
#X floatatom 70 30 8 0 0 0 - - -;
#X obj 125 65 / 255;
#X obj 172 64 mod 255;
#X msg 202 89 255;
#X floatatom 196 31 5 0 0 0 - - -;
#X connect 0 0 1 0;
#X connect 1 0 3 1;
#X connect 1 0 6 1;
#X connect 1 0 5 0;
#X connect 2 0 7 0;
#X connect 3 0 4 0;
#X connect 3 0 10 0;
#X connect 4 0 9 0;
#X connect 5 0 6 0;
#X connect 6 0 7 1;
#X connect 7 0 4 0;
#X connect 7 0 11 0;
#X connect 8 0 12 0;
#X connect 8 0 13 0;
#X connect 8 0 14 0;
#X connect 13 0 0 0;
#X connect 14 0 2 1;
#X connect 14 0 3 0;
#X connect 14 0 15 0;
#X connect 15 0 2 0;
#X connect 16 0 13 0;
#X connect 16 0 14 0;
#X restore 116 -12 pd slider-inverter;
#X floatatom 116 52 5 0 0 0 - - -;
#X obj 148 -52 r data;
#X obj 164 67 maxlib/scale 0 255 90 255;
#X obj 164 39 maxlib/scale 0 255 0 230;
#X obj -101 -91 loadbang;
#X msg 106 124 print 49c\$1w;
#X msg 106 165 print 50c\$1w;
#X msg 106 206 print 51c\$1w;
#X msg 106 247 print 52c\$1w;
#X msg 106 287 print 53c\$1w;
#X msg 106 329 print 54c\$1w;
#X obj 1 58 f;
#X obj 1 -15 bng 25 250 50 0 empty change_sms_3 colours 0 -7 0 10 -4160
-1 -1;
#X floatatom 1 171 5 0 0 0 - - -;
#X obj 1 87 +;
#X floatatom 1 115 5 0 0 0 - - -;
#X msg 31 41 0;
#X msg 31 70 12;
#X obj 1 142 mod 144;
#X obj -72 144 bng 25 250 50 0 empty strobe_3 strobe 0 -7 0 10 -204800
-1 -1;
#X obj -23 224 delay 1000;
#X msg -86 180 120;
#X msg -23 252 86;
#X obj -86 274 s strobe;
#X obj 39 267 r strobe;
#X obj -86 225 *;
#X obj -71 202 r strobe_r;
#X obj 34 197 r strobe_d;
#X floatatom -77 249 5 0 0 0 - - -;
#X floatatom 47 224 5 0 0 0 - - -;
#X obj -44 35 inlet;
#X obj 106 372 s scanner3;
#X msg 132 -74 65;
#X obj 166 -75 inlet;
#X obj -9 291 inlet;
#X connect 0 0 5 0;
#X connect 1 0 6 0;
#X connect 2 0 7 0;
#X connect 3 0 8 0;
#X connect 4 0 9 0;
#X connect 5 0 26 0;
#X connect 6 0 27 0;
#X connect 7 0 28 0;
#X connect 8 0 30 0;
#X connect 9 0 29 0;
#X connect 10 0 11 0;
#X connect 11 0 31 0;
#X connect 18 0 10 0;
#X connect 20 0 21 0;
#X connect 20 0 23 0;
#X connect 20 0 24 0;
#X connect 22 0 20 0;
#X connect 23 0 1 0;
#X connect 24 0 0 0;
#X connect 25 0 18 0;
#X connect 25 0 37 0;
#X connect 25 0 38 0;
#X connect 25 0 53 0;
#X connect 26 0 52 0;
#X connect 27 0 52 0;
#X connect 28 0 52 0;
#X connect 29 0 52 0;
#X connect 30 0 52 0;
#X connect 31 0 52 0;
#X connect 32 0 35 0;
#X connect 33 0 32 0;
#X connect 34 0 2 0;
#X connect 35 0 32 1;
#X connect 35 0 36 0;
#X connect 36 0 39 0;
#X connect 37 0 32 1;
#X connect 38 0 35 1;
#X connect 39 0 34 0;
#X connect 40 0 42 0;
#X connect 40 0 41 0;
#X connect 41 0 43 0;
#X connect 42 0 46 0;
#X connect 43 0 44 0;
#X connect 45 0 10 0;
#X connect 46 0 44 0;
#X connect 46 0 49 0;
#X connect 47 0 46 1;
#X connect 48 0 41 1;
#X connect 48 0 50 0;
#X connect 51 0 32 0;
#X connect 53 0 4 0;
#X connect 54 0 4 0;
#X connect 55 0 10 0;
#X restore 138 -104 pd scanner-03;
#N canvas 127 137 445 551 scanner-04 0;
#X obj 217 133 hsl 128 15 0 225 0 0 empty empty empty -2 -8 0 10 -258113
-1 -1 6524 1;
#X obj 217 177 hsl 128 15 40 160 0 0 empty empty empty -2 -8 0 10 -4034
-1 -1 6524 1;
#X obj 217 217 hsl 128 15 0 255 0 0 empty empty empty -2 -8 0 10 -4160
-1 -1 6574 1;
#X obj 217 299 hsl 128 15 0 255 0 0 empty empty empty -2 -8 0 10 -128992
-1 -1 0 1;
#X obj 217 258 hsl 128 15 0 255 0 0 empty empty empty -2 -8 0 10 -228856
-1 -1 3237 1;
#X obj 188 175 int;
#X obj 188 216 int;
#X obj 188 297 int;
#X obj 188 256 int;
#X obj 216 342 hsl 128 15 0 255 0 0 empty empty empty -2 -8 0 10 -128992
-1 -1 4283 1;
#X obj 187 340 int;
#X text 276 360 DIMMER/STROBE/PROG;
#X text 277 317 GOBO ROTATION;
#X text 270 276 GOBO WHEEL;
#X text 270 235 COLOUR WHEEL;
#X text 270 194 TILT;
#X text 270 154 PAN;
#N canvas 116 143 449 300 slider-inverter 0;
#X obj 125 99 mod 2;
#X floatatom 125 120 5 0 0 0 - - -;
#X obj 202 120 -;
#X obj 92 143 spigot;
#X obj 158 195 hsl 128 15 0 255 0 0 empty empty empty -2 -8 0 10 -262144
-1 -1 6524 1;
#X msg 235 99 1;
#X obj 235 120 -;
#X obj 202 143 spigot;
#X obj 140 -7 inlet;
#X obj 178 257 outlet;
#X floatatom 90 175 5 0 0 0 - - -;
#X floatatom 209 171 5 0 0 0 - - -;
#X floatatom 70 30 8 0 0 0 - - -;
#X obj 250 240 line 0;
#X obj 125 65 / 255;
#X obj 172 64 mod 255;
#X msg 202 89 255;
#X floatatom 196 31 5 0 0 0 - - -;
#X msg 250 218 \$1 5000;
#X connect 0 0 1 0;
#X connect 1 0 3 1;
#X connect 1 0 6 1;
#X connect 1 0 5 0;
#X connect 2 0 7 0;
#X connect 3 0 4 0;
#X connect 3 0 10 0;
#X connect 4 0 18 0;
#X connect 4 0 9 0;
#X connect 5 0 6 0;
#X connect 6 0 7 1;
#X connect 7 0 4 0;
#X connect 7 0 11 0;
#X connect 8 0 12 0;
#X connect 8 0 14 0;
#X connect 8 0 15 0;
#X connect 14 0 0 0;
#X connect 15 0 2 1;
#X connect 15 0 3 0;
#X connect 15 0 16 0;
#X connect 16 0 2 0;
#X connect 17 0 14 0;
#X connect 17 0 15 0;
#X connect 18 0 13 0;
#X restore 177 23 pd slider-inverter;
#X floatatom 177 100 5 0 0 0 - - -;
#X obj 209 -17 r data;
#X msg 188 154 print 55c\$1w;
#X msg 188 195 print 56c\$1w;
#X msg 188 235 print 57c\$1w;
#X msg 188 277 print 58c\$1w;
#X msg 188 317 print 59c\$1w;
#X msg 188 359 print 60c\$1w;
#X obj 231 49 maxlib/scale 0 255 0 225;
#X obj 231 77 maxlib/scale 0 255 40 160;
#X msg -71 325 86;
#X text -75 343 dimmer open;
#X obj -71 -61 loadbang;
#X obj 31 88 f;
#X obj 31 15 bng 25 250 50 0 empty change_sms colours 0 -7 0 10 -4160
-1 -1;
#X floatatom 31 201 5 0 0 0 - - -;
#X obj 31 117 +;
#X floatatom 31 145 5 0 0 0 - - -;
#X msg 61 71 0;
#X msg 61 100 12;
#X obj 31 172 mod 144;
#X obj -42 174 bng 25 250 50 0 empty strobe_4 strobe 0 -7 0 10 -204800
-1 -1;
#X obj 7 254 delay 1000;
#X msg -56 210 120;
#X msg 7 282 86;
#X obj -56 304 s strobe;
#X obj 69 297 r strobe;
#X obj -56 255 *;
#X obj -41 232 r strobe_r;
#X obj 64 227 r strobe_d;
#X floatatom -47 279 5 0 0 0 - - -;
#X floatatom 77 254 5 0 0 0 - - -;
#X obj -8 66 inlet;
#X msg 124 51 14;
#X msg 96 51 150;
#X obj 96 15 bng 25 250 50 0 empty empty empty 17 7 0 10 -232576 -1
-1;
#X obj 96 -11 inlet;
#X obj 188 134 int;
#X msg 214 -44 65;
#X obj 188 410 s scanner4;
#X obj 262 -35 inlet;
#X obj 89 387 inlet;
#X connect 0 0 55 0;
#X connect 1 0 5 0;
#X connect 2 0 6 0;
#X connect 3 0 7 0;
#X connect 4 0 8 0;
#X connect 5 0 21 0;
#X connect 6 0 22 0;
#X connect 7 0 24 0;
#X connect 8 0 23 0;
#X connect 9 0 10 0;
#X connect 10 0 25 0;
#X connect 17 0 18 0;
#X connect 17 0 26 0;
#X connect 17 0 27 0;
#X connect 19 0 17 0;
#X connect 20 0 57 0;
#X connect 21 0 57 0;
#X connect 22 0 57 0;
#X connect 23 0 57 0;
#X connect 24 0 57 0;
#X connect 25 0 57 0;
#X connect 26 0 0 0;
#X connect 27 0 1 0;
#X connect 28 0 9 0;
#X connect 30 0 28 0;
#X connect 30 0 36 0;
#X connect 30 0 37 0;
#X connect 30 0 56 0;
#X connect 31 0 34 0;
#X connect 32 0 31 0;
#X connect 33 0 2 0;
#X connect 34 0 31 1;
#X connect 34 0 35 0;
#X connect 35 0 38 0;
#X connect 36 0 31 1;
#X connect 37 0 34 1;
#X connect 38 0 33 0;
#X connect 39 0 41 0;
#X connect 39 0 40 0;
#X connect 40 0 42 0;
#X connect 41 0 45 0;
#X connect 42 0 43 0;
#X connect 44 0 9 0;
#X connect 45 0 43 0;
#X connect 45 0 48 0;
#X connect 46 0 45 1;
#X connect 47 0 40 1;
#X connect 47 0 49 0;
#X connect 50 0 31 0;
#X connect 51 0 0 0;
#X connect 52 0 1 0;
#X connect 53 0 51 0;
#X connect 53 0 52 0;
#X connect 54 0 53 0;
#X connect 55 0 20 0;
#X connect 56 0 4 0;
#X connect 58 0 4 0;
#X connect 59 0 9 0;
#X restore 310 -105 pd scanner-04;
#N canvas 105 182 480 523 scanner-05 1;
#X obj 157 123 hsl 128 15 73 200 0 0 empty empty empty -2 -8 0 10 -258113
-1 -1 3545 1;
#X obj 157 167 hsl 128 15 0 255 0 0 empty empty empty -2 -8 0 10 -4034
-1 -1 7783 1;
#X obj 157 207 hsl 128 15 0 255 0 0 empty empty empty -2 -8 0 10 -4160
-1 -1 0 1;
#X obj 157 289 hsl 128 15 0 255 0 0 empty empty empty -2 -8 0 10 -128992
-1 -1 0 1;
#X obj 157 248 hsl 128 15 0 255 0 0 empty empty empty -2 -8 0 10 -228856
-1 -1 3237 1;
#X obj 128 124 int;
#X obj 128 165 int;
#X obj 128 206 int;
#X obj 128 287 int;
#X obj 128 246 int;
#X obj 156 332 hsl 128 15 0 255 0 0 empty empty empty -2 -8 0 10 -128992
-1 -1 4283 1;
#X obj 127 330 int;
#X text 216 350 DIMMER/STROBE/PROG;
#X text 217 307 GOBO ROTATION;
#X text 210 266 GOBO WHEEL;
#X text 210 225 COLOUR WHEEL;
#X text 210 184 TILT;
#X text 210 144 PAN;
#N canvas 116 145 449 300 slider-inverter 0;
#X obj 125 99 mod 2;
#X floatatom 125 120 5 0 0 0 - - -;
#X obj 202 120 -;
#X obj 92 143 spigot;
#X obj 158 195 hsl 128 15 0 255 0 0 empty empty empty -2 -8 0 10 -262144
-1 -1 6524 1;
#X msg 235 99 1;
#X obj 235 120 -;
#X obj 202 143 spigot;
#X obj 140 -7 inlet;
#X obj 178 257 outlet;
#X floatatom 90 175 5 0 0 0 - - -;
#X floatatom 209 171 5 0 0 0 - - -;
#X floatatom 70 30 8 0 0 0 - - -;
#X obj 125 65 / 255;
#X obj 172 64 mod 255;
#X msg 202 89 255;
#X floatatom 196 31 5 0 0 0 - - -;
#X connect 0 0 1 0;
#X connect 1 0 3 1;
#X connect 1 0 6 1;
#X connect 1 0 5 0;
#X connect 2 0 7 0;
#X connect 3 0 4 0;
#X connect 3 0 10 0;
#X connect 4 0 9 0;
#X connect 5 0 6 0;
#X connect 6 0 7 1;
#X connect 7 0 4 0;
#X connect 7 0 11 0;
#X connect 8 0 12 0;
#X connect 8 0 13 0;
#X connect 8 0 14 0;
#X connect 13 0 0 0;
#X connect 14 0 2 1;
#X connect 14 0 3 0;
#X connect 14 0 15 0;
#X connect 15 0 2 0;
#X connect 16 0 13 0;
#X connect 16 0 14 0;
#X restore 127 33 pd slider-inverter;
#X floatatom 127 77 5 0 0 0 - - -;
#X obj 159 -7 r data;
#X msg 128 144 print 67c\$1w;
#X msg 128 185 print 68c\$1w;
#X msg 128 226 print 69c\$1w;
#X msg 128 267 print 70c\$1w;
#X msg 128 307 print 71c\$1w;
#X msg 128 349 print 72c\$1w;
#X obj 191 97 maxlib/scale 0 255 52 255;
#X obj 191 70 maxlib/scale 0 255 73 142;
#X msg -81 315 86;
#X text -85 333 dimmer open;
#X obj -81 -71 loadbang;
#X obj 21 78 f;
#X obj 21 5 bng 25 250 50 0 empty change_sms colours 0 -7 0 10 -4160
-1 -1;
#X floatatom 21 191 5 0 0 0 - - -;
#X obj 21 107 +;
#X floatatom 21 135 5 0 0 0 - - -;
#X msg 51 61 0;
#X msg 51 90 12;
#X obj 21 162 mod 144;
#X obj -52 164 bng 25 250 50 0 empty strobe_5 strobe 0 -7 0 10 -204800
-1 -1;
#X obj -3 244 delay 1000;
#X msg -66 200 120;
#X msg -3 272 86;
#X obj -66 294 s strobe;
#X obj 59 287 r strobe;
#X obj -66 245 *;
#X obj -51 222 r strobe_r;
#X obj 54 217 r strobe_d;
#X floatatom -57 269 5 0 0 0 - - -;
#X floatatom 67 244 5 0 0 0 - - -;
#X obj -24 55 inlet;
#X obj 128 395 s scanner5;
#X obj 11 309 inlet;
#X msg 154 -54 65;
#X obj 192 -54 inlet;
#X obj 87 98 print data;
#X connect 0 0 5 0;
#X connect 1 0 6 0;
#X connect 2 0 7 0;
#X connect 3 0 8 0;
#X connect 4 0 9 0;
#X connect 5 0 21 0;
#X connect 6 0 22 0;
#X connect 7 0 23 0;
#X connect 8 0 25 0;
#X connect 9 0 24 0;
#X connect 10 0 11 0;
#X connect 11 0 26 0;
#X connect 18 0 19 0;
#X connect 18 0 27 0;
#X connect 18 0 28 0;
#X connect 20 0 18 0;
#X connect 21 0 52 0;
#X connect 22 0 52 0;
#X connect 23 0 52 0;
#X connect 24 0 52 0;
#X connect 25 0 52 0;
#X connect 26 0 52 0;
#X connect 27 0 1 0;
#X connect 27 0 56 0;
#X connect 28 0 0 0;
#X connect 28 0 56 0;
#X connect 29 0 10 0;
#X connect 31 0 29 0;
#X connect 31 0 37 0;
#X connect 31 0 38 0;
#X connect 31 0 54 0;
#X connect 32 0 35 0;
#X connect 33 0 32 0;
#X connect 34 0 2 0;
#X connect 35 0 32 1;
#X connect 35 0 36 0;
#X connect 36 0 39 0;
#X connect 37 0 32 1;
#X connect 38 0 35 1;
#X connect 39 0 34 0;
#X connect 40 0 42 0;
#X connect 40 0 41 0;
#X connect 41 0 43 0;
#X connect 42 0 46 0;
#X connect 43 0 44 0;
#X connect 45 0 10 0;
#X connect 46 0 44 0;
#X connect 46 0 49 0;
#X connect 47 0 46 1;
#X connect 48 0 41 1;
#X connect 48 0 50 0;
#X connect 51 0 32 0;
#X connect 53 0 10 0;
#X connect 54 0 4 0;
#X connect 55 0 4 0;
#X restore 310 -18 pd scanner-05;
#N canvas 65 121 473 507 scanner-06 0;
#X obj 157 113 hsl 128 15 100 200 0 0 empty empty empty -2 -8 0 10
-258113 -1 -1 6524 1;
#X obj 157 157 hsl 128 15 80 222 0 0 empty empty empty -2 -8 0 10 -4034
-1 -1 6524 1;
#X obj 157 197 hsl 128 15 0 255 0 0 empty empty empty -2 -8 0 10 -4160
-1 -1 0 1;
#X obj 157 279 hsl 128 15 0 255 0 0 empty empty empty -2 -8 0 10 -128992
-1 -1 0 1;
#X obj 157 238 hsl 128 15 0 255 0 0 empty empty empty -2 -8 0 10 -228856
-1 -1 3237 1;
#X obj 128 114 int;
#X obj 128 155 int;
#X obj 128 196 int;
#X obj 128 277 int;
#X obj 128 236 int;
#X obj 156 322 hsl 128 15 0 255 0 0 empty empty empty -2 -8 0 10 -128992
-1 -1 4283 1;
#X obj 127 320 int;
#X text 216 340 DIMMER/STROBE/PROG;
#X text 217 297 GOBO ROTATION;
#X text 210 256 GOBO WHEEL;
#X text 210 215 COLOUR WHEEL;
#X text 210 174 TILT;
#X text 210 134 PAN;
#N canvas 116 145 449 300 slider-inverter 0;
#X obj 125 99 mod 2;
#X floatatom 125 120 5 0 0 0 - - -;
#X obj 202 120 -;
#X obj 92 143 spigot;
#X obj 158 195 hsl 128 15 0 255 0 0 empty empty empty -2 -8 0 10 -262144
-1 -1 6524 1;
#X msg 235 99 1;
#X obj 235 120 -;
#X obj 202 143 spigot;
#X obj 140 -7 inlet;
#X obj 178 257 outlet;
#X floatatom 90 175 5 0 0 0 - - -;
#X floatatom 209 171 5 0 0 0 - - -;
#X floatatom 70 30 8 0 0 0 - - -;
#X obj 125 65 / 255;
#X obj 172 64 mod 255;
#X msg 202 89 255;
#X floatatom 196 31 5 0 0 0 - - -;
#X connect 0 0 1 0;
#X connect 1 0 3 1;
#X connect 1 0 6 1;
#X connect 1 0 5 0;
#X connect 2 0 7 0;
#X connect 3 0 4 0;
#X connect 3 0 10 0;
#X connect 4 0 9 0;
#X connect 5 0 6 0;
#X connect 6 0 7 1;
#X connect 7 0 4 0;
#X connect 7 0 11 0;
#X connect 8 0 12 0;
#X connect 8 0 13 0;
#X connect 8 0 14 0;
#X connect 13 0 0 0;
#X connect 14 0 2 1;
#X connect 14 0 3 0;
#X connect 14 0 15 0;
#X connect 15 0 2 0;
#X connect 16 0 13 0;
#X connect 16 0 14 0;
#X restore 145 13 pd slider-inverter;
#X floatatom 145 68 5 0 0 0 - - -;
#X obj 177 -27 r data;
#X msg 128 134 print 119c\$1w;
#X msg 128 175 print 120c\$1w;
#X msg 128 216 print 121c\$1w;
#X msg 128 257 print 122c\$1w;
#X msg 128 297 print 123c\$1w;
#X msg 128 339 print 124c\$1w;
#X obj 191 59 maxlib/scale 0 255 100 200;
#X obj 191 87 maxlib/scale 0 255 80 222;
#X msg -91 305 86;
#X text -95 323 dimmer open;
#X obj -91 -81 loadbang;
#X obj 11 68 f;
#X obj 11 -5 bng 25 250 50 0 empty change_sms colours 0 -7 0 10 -4160
-1 -1;
#X floatatom 11 181 5 0 0 0 - - -;
#X obj 11 97 +;
#X floatatom 11 125 5 0 0 0 - - -;
#X msg 41 51 0;
#X msg 41 80 12;
#X obj 11 152 mod 144;
#X obj -62 154 bng 25 250 50 0 empty strobe_6 strobe 0 -7 0 10 -204800
-1 -1;
#X obj -13 234 delay 1000;
#X msg -76 190 120;
#X msg -13 262 86;
#X obj -76 284 s strobe;
#X obj 49 277 r strobe;
#X obj -76 235 *;
#X obj -61 212 r strobe_r;
#X obj 44 207 r strobe_d;
#X floatatom -67 259 5 0 0 0 - - -;
#X floatatom 57 234 5 0 0 0 - - -;
#X obj -52 34 inlet;
#X obj 128 366 s scanner6;
#X msg 154 -64 65;
#X obj 202 -65 inlet;
#X obj 9 301 inlet;
#X connect 0 0 5 0;
#X connect 1 0 6 0;
#X connect 2 0 7 0;
#X connect 3 0 8 0;
#X connect 4 0 9 0;
#X connect 5 0 21 0;
#X connect 6 0 22 0;
#X connect 7 0 23 0;
#X connect 8 0 25 0;
#X connect 9 0 24 0;
#X connect 10 0 11 0;
#X connect 11 0 26 0;
#X connect 18 0 19 0;
#X connect 18 0 27 0;
#X connect 18 0 28 0;
#X connect 20 0 18 0;
#X connect 21 0 52 0;
#X connect 22 0 52 0;
#X connect 23 0 52 0;
#X connect 24 0 52 0;
#X connect 25 0 52 0;
#X connect 26 0 52 0;
#X connect 27 0 0 0;
#X connect 28 0 1 0;
#X connect 29 0 10 0;
#X connect 31 0 29 0;
#X connect 31 0 37 0;
#X connect 31 0 38 0;
#X connect 31 0 53 0;
#X connect 32 0 35 0;
#X connect 33 0 32 0;
#X connect 34 0 2 0;
#X connect 35 0 32 1;
#X connect 35 0 36 0;
#X connect 36 0 39 0;
#X connect 37 0 32 1;
#X connect 38 0 35 1;
#X connect 39 0 34 0;
#X connect 40 0 42 0;
#X connect 40 0 41 0;
#X connect 41 0 43 0;
#X connect 42 0 46 0;
#X connect 43 0 44 0;
#X connect 45 0 10 0;
#X connect 46 0 44 0;
#X connect 46 0 49 0;
#X connect 47 0 46 1;
#X connect 48 0 41 1;
#X connect 48 0 50 0;
#X connect 51 0 32 0;
#X connect 53 0 4 0;
#X connect 54 0 4 0;
#X connect 55 0 10 0;
#X restore 310 66 pd scanner-06;
#X obj 482 -197 import mrpeach;
#X obj 482 -165 udpreceive 50000;
#X obj 482 -131 unpackOSC;
#X floatatom 482 -51 8 0 0 2 data - -;
#X floatatom 542 209 5 0 0 2 conversation - -;
#X floatatom 603 -34 5 0 0 2 sms - -;
#X floatatom 664 -45 5 0 0 2 signal - -;
#X obj 482 -24 +;
#X floatatom 482 3 10 0 0 0 - - -;
#X obj 542 237 +;
#X floatatom 611 221 10 0 0 0 - - -;
#X obj 603 -4 +;
#X floatatom 637 13 5 0 0 0 - - -;
#X obj 664 -18 +;
#X floatatom 700 -19 5 0 0 0 - - -;
#X obj 704 29 change;
#X obj 704 60 bng 25 250 50 0 change_sms empty empty 17 7 0 10 -4160
-1 -1;
#X obj 482 -92 OSCroute /data /conversation /sms /signal;
#X obj 644 -148 route from;
#X obj 644 -114 print fromfrom;
#X floatatom 482 55 10 0 0 0 - - -;
#X obj 482 79 s data;
#X obj 348 -135 bng 25 250 50 0 empty empty DISKO 0 -7 0 10 -232576
-1 -1;
#X obj 658 41 mod 2;
#X obj 619 41 mod 3;
#X floatatom 619 70 5 0 0 0 - - -;
#X floatatom 658 76 5 0 0 0 - - -;
#X obj 658 98 select 0;
#X obj 658 150 bng 25 250 50 0 change_sms_2 empty empty 17 7 0 10 -4160
-1 -1;
#X obj 600 92 select 0;
#X obj 600 149 bng 25 250 50 0 change_sms_3 empty empty 17 7 0 10 -4160
-1 -1;
#X obj 611 370 bng 25 250 50 0 strobe_6 empty strobe 0 -7 0 10 -204800
-1 -1;
#X obj 611 329 bng 25 250 50 0 strobe_5 empty strobe 0 -7 0 10 -204800
-1 -1;
#X obj 611 291 bng 25 250 50 0 strobe_4 empty strobe 0 -7 0 10 -204800
-1 -1;
#X obj 568 370 bng 25 250 50 0 strobe_1 empty strobe 0 -7 0 10 -204800
-1 -1;
#X obj 568 329 bng 25 250 50 0 strobe_2 empty strobe 0 -7 0 10 -204800
-1 -1;
#X obj 568 291 bng 25 250 50 0 strobe_3 empty strobe 0 -7 0 10 -204800
-1 -1;
#X obj 490 353 delay 2000;
#X obj 490 332 delay 3000;
#X obj 490 311 delay 2000;
#X obj 490 290 delay 1000;
#X obj 490 269 delay 3000;
#X obj 611 244 change;
#X obj 774 249 / 60;
#X floatatom 774 272 5 0 0 0 - - -;
#X obj 774 349 s strobe_r;
#X obj 774 397 s strobe_d;
#X obj 774 374 maxlib/scale 1 20 1000 5000;
#X obj 751 -114 maxlib/scale 1 32 0 255;
#X obj 751 -91 s R;
#X obj 751 -45 maxlib/scale 1 32 255 0;
#X obj 751 -22 s G;
#X obj 795 -92 * 0.8;
#X obj 795 -71 s B;
#X obj 242 -204 r R;
#X obj 270 -204 r G;
#X obj 299 -204 r B;
#X obj 346 -200 r R;
#X obj 374 -200 r G;
#X obj 403 -200 r B;
#X obj 138 -199 r R;
#X obj 166 -199 r G;
#X obj 195 -199 r B;
#X obj 295 172 r scanner4;
#X obj 328 212 delay 40;
#X msg 328 233 1;
#X obj 295 271 spigot;
#X obj 361 229 delay 2;
#X msg 361 250 0;
#X obj 328 250 tgl 15 0 empty empty empty 17 7 0 10 -262144 -1 -1 0
1;
#X obj 328 194 bng 15 250 50 0 empty empty empty 17 7 0 10 -262144
-1 -1;
#X msg 230 233 1;
#X obj 197 271 spigot;
#X obj 263 229 delay 2;
#X msg 263 250 0;
#X obj 230 250 tgl 15 0 empty empty empty 17 7 0 10 -262144 -1 -1 0
1;
#X obj 230 194 bng 15 250 50 0 empty empty empty 17 7 0 10 -262144
-1 -1;
#X obj 230 212 delay 30;
#X obj 197 172 r scanner3;
#X msg 213 -42 0;
#X obj 198 298 r scanner2;
#X obj 296 298 r scanner5;
#X obj 197 357 r scanner1;
#X obj 295 357 r scanner6;
#X msg 385 41 0;
#X msg 385 -129 0;
#X msg 1 321 open 0;
#X obj 482 27 / 500;
#X msg 256 -15 87;
#X obj 774 326 maxlib/scale 1 20 1.05 0.95;
#X obj 865 411 print strobe_r;
#X obj 865 432 print strobe_d;
#X obj 658 121 spigot;
#X msg 752 104 0;
#X msg 752 46 1;
#X obj 752 83 delay 5;
#X obj 752 65 bng 15 250 50 0 empty empty empty 17 7 0 10 -262144 -1
-1;
#X obj 600 121 spigot;
#X obj 774 225 spigot;
#X msg 828 208 0;
#X msg 828 150 1;
#X obj 828 187 delay 5;
#X obj 828 169 bng 15 250 50 0 empty empty empty 17 7 0 10 -262144
-1 -1;
#X floatatom 730 336 5 0 0 0 - - -;
#X msg 849 284 20;
#X obj 653 391 metro;
#X obj 685 288 moses 20;
#X obj 653 435 counter;
#X floatatom 653 458 5 0 0 0 - - -;
#X obj 653 373 tgl 15 0 empty empty empty 17 7 0 10 -262144 -1 -1 0
1;
#X obj 692 327 bng 15 250 50 0 empty empty empty 17 7 0 10 -262144
-1 -1;
#X msg 712 367 max \$1;
#X msg 692 345 0;
#X msg 660 345 1;
#X obj 660 326 bng 15 250 50 0 empty empty empty 17 7 0 10 -262144
-1 -1;
#X obj 849 267 bng 15 250 50 0 empty empty empty 17 7 0 10 -262144
-1 -1;
#X msg 692 403 set 0;
#X obj 730 313 / 20;
#X connect 0 0 1 0;
#X connect 2 0 1 0;
#X connect 9 0 8 0;
#X connect 11 0 1 0;
#X connect 12 0 17 0;
#X connect 13 0 18 0;
#X connect 14 0 21 0;
#X connect 15 0 20 0;
#X connect 16 0 19 0;
#X connect 23 0 24 0;
#X connect 23 1 40 0;
#X connect 24 0 39 0;
#X connect 25 0 29 0;
#X connect 26 0 31 0;
#X connect 26 0 120 0;
#X connect 27 0 33 0;
#X connect 28 0 35 0;
#X connect 29 0 30 0;
#X connect 30 0 29 1;
#X connect 30 0 109 0;
#X connect 31 0 32 0;
#X connect 32 0 31 1;
#X connect 32 0 64 0;
#X connect 33 0 34 0;
#X connect 34 0 33 1;
#X connect 34 0 37 0;
#X connect 34 0 45 0;
#X connect 34 0 46 0;
#X connect 35 0 36 0;
#X connect 36 0 35 1;
#X connect 36 0 70 0;
#X connect 36 0 72 0;
#X connect 37 0 38 0;
#X connect 37 0 116 0;
#X connect 39 0 25 0;
#X connect 39 1 26 0;
#X connect 39 2 27 0;
#X connect 39 3 28 0;
#X connect 40 0 41 0;
#X connect 42 0 43 0;
#X connect 44 0 19 2;
#X connect 45 0 48 0;
#X connect 46 0 47 0;
#X connect 47 0 51 0;
#X connect 48 0 49 0;
#X connect 49 0 114 0;
#X connect 51 0 119 0;
#X connect 54 0 59 0;
#X connect 55 0 62 0;
#X connect 56 0 60 0;
#X connect 57 0 61 0;
#X connect 58 0 63 0;
#X connect 59 0 56 0;
#X connect 60 0 57 0;
#X connect 61 0 55 0;
#X connect 62 0 58 0;
#X connect 63 0 53 0;
#X connect 64 0 54 0;
#X connect 64 0 122 0;
#X connect 65 0 66 0;
#X connect 66 0 128 0;
#X connect 69 0 68 0;
#X connect 69 0 113 0;
#X connect 69 0 127 1;
#X connect 70 0 71 0;
#X connect 70 0 74 0;
#X connect 72 0 73 0;
#X connect 74 0 75 0;
#X connect 76 0 6 0;
#X connect 77 0 6 1;
#X connect 78 0 6 2;
#X connect 79 0 7 0;
#X connect 80 0 7 1;
#X connect 81 0 7 2;
#X connect 82 0 4 0;
#X connect 83 0 4 1;
#X connect 84 0 4 2;
#X connect 85 0 92 0;
#X connect 85 0 1 0;
#X connect 86 0 87 0;
#X connect 86 0 89 0;
#X connect 87 0 91 0;
#X connect 89 0 90 0;
#X connect 90 0 91 0;
#X connect 91 0 88 1;
#X connect 92 0 86 0;
#X connect 93 0 97 0;
#X connect 95 0 96 0;
#X connect 96 0 97 0;
#X connect 97 0 94 1;
#X connect 98 0 99 0;
#X connect 99 0 93 0;
#X connect 99 0 95 0;
#X connect 100 0 98 0;
#X connect 100 0 1 0;
#X connect 101 0 17 2;
#X connect 102 0 1 0;
#X connect 103 0 1 0;
#X connect 104 0 1 0;
#X connect 105 0 1 0;
#X connect 106 0 21 2;
#X connect 107 0 19 3;
#X connect 108 0 1 0;
#X connect 109 0 42 0;
#X connect 110 0 21 1;
#X connect 110 0 8 1;
#X connect 110 0 17 1;
#X connect 110 0 20 1;
#X connect 110 0 18 1;
#X connect 110 0 19 1;
#X connect 111 0 67 0;
#X connect 111 0 112 0;
#X connect 114 0 50 0;
#X connect 115 0 114 1;
#X connect 115 0 119 1;
#X connect 116 0 118 0;
#X connect 116 0 114 1;
#X connect 116 0 119 1;
#X connect 117 0 115 0;
#X connect 118 0 117 0;
#X connect 119 0 52 0;
#X connect 120 0 65 0;
#X connect 121 0 120 1;
#X connect 122 0 124 0;
#X connect 122 0 120 1;
#X connect 123 0 121 0;
#X connect 124 0 123 0;
#X connect 125 0 133 0;
#X connect 126 0 111 0;
#X connect 126 0 69 0;
#X connect 127 0 129 0;
#X connect 128 0 111 0;
#X connect 128 0 69 0;
#X connect 128 1 136 0;
#X connect 128 1 139 0;
#X connect 129 0 130 0;
#X connect 129 3 132 0;
#X connect 130 0 137 0;
#X connect 131 0 127 0;
#X connect 132 0 134 0;
#X connect 132 0 138 0;
#X connect 133 0 129 0;
#X connect 134 0 131 0;
#X connect 135 0 131 0;
#X connect 136 0 135 0;
#X connect 137 0 126 0;
#X connect 138 0 129 0;
#X connect 139 0 125 0;
