#N canvas 60 77 1303 663 12;
#X declare -lib mrpeach;
#X obj 21 -209 import mrpeach;
#X obj 24 -169 udpreceive 50000;
#X obj 24 -135 unpackOSC;
#X floatatom 24 -55 8 0 0 2 data - -;
#X floatatom 95 142 5 0 0 2 conversation - -;
#X floatatom 133 -38 5 0 0 2 sms - -;
#X floatatom 237 -49 5 0 0 2 signal - -;
#X obj 25 -28 +;
#X floatatom 25 8 10 0 0 0 - - -;
#X obj 95 170 +;
#X floatatom 152 172 10 0 0 0 - - -;
#X obj 130 -8 +;
#X floatatom 179 -9 5 0 0 0 - - -;
#X obj 236 -19 +;
#X floatatom 272 -20 5 0 0 0 - - -;
#X obj 529 378 change;
#X obj 530 415 bng 25 250 50 0 empty empty empty 17 7 0 10 -262144
-1 -1;
#X obj 198 25 change;
#X obj 198 56 bng 25 250 50 0 empty empty empty 17 7 0 10 -262144 -1
-1;
#X text 619 -93 GREEN;
#X text 619 -53 BLUE;
#X msg 539 -132 print 1c\$1w;
#X obj 568 -151 hsl 128 15 0 255 0 0 empty empty empty -2 -8 0 10 -258113
-1 -1 12700 1;
#X obj 568 -109 hsl 128 15 0 255 0 0 empty empty empty -2 -8 0 10 -4034
-1 -1 5900 1;
#X obj 568 -69 hsl 128 15 0 255 0 0 empty empty empty -2 -8 0 10 -4160
-1 -1 12700 1;
#X obj 568 13 hsl 128 15 0 255 0 0 empty empty empty -2 -8 0 10 -128992
-1 -1 0 1;
#X text 492 -142 LAMP1;
#X obj 568 -28 hsl 128 15 0 255 0 0 empty empty empty -2 -8 0 10 -228856
-1 -1 12700 1;
#X obj 539 -152 int;
#X obj 539 -111 int;
#X obj 539 -70 int;
#X obj 539 11 int;
#X obj 539 -30 int;
#X msg 555 91 open 0;
#X msg 539 -91 print 2c\$1w;
#X msg 539 -50 print 3c\$1w;
#X msg 539 -9 print 4c\$1w;
#X msg 539 31 print 5c\$1w;
#X text 619 -133 RED;
#X obj 539 146 comport 0 115200;
#X text 619 -13 DIMMER;
#X text 619 27 SOUND/ON/STROBE;
#X msg 613 91 close;
#X obj 583 -205 + 20;
#X obj 107 42 change;
#X msg 107 72 10;
#X obj 555 63 loadbang;
#X obj 24 -96 OSCroute /data /conversation /sms /signal;
#X text 176 -39;
#X floatatom 583 -181 5 0 0 0 - - -;
#X floatatom 188 -144 5 0 0 0 - - -;
#X obj 129 -123 print unpack;
#X obj 384 -27 route from;
#X obj 383 98 print fromfrom;
#X obj 944 55 hsl 128 15 0 255 0 0 empty empty empty -2 -8 0 10 -258113
-1 -1 7495 1;
#X obj 944 97 hsl 128 15 0 255 0 0 empty empty empty -2 -8 0 10 -4034
-1 -1 9859 1;
#X obj 944 137 hsl 128 15 0 255 0 0 empty empty empty -2 -8 0 10 -4160
-1 -1 6159 1;
#X obj 944 219 hsl 128 15 0 255 0 0 empty empty empty -2 -8 0 10 -128992
-1 -1 6973 1;
#X obj 944 178 hsl 128 15 0 255 0 0 empty empty empty -2 -8 0 10 -228856
-1 -1 4881 1;
#X obj 915 54 int;
#X obj 915 95 int;
#X obj 915 136 int;
#X obj 915 217 int;
#X obj 915 176 int;
#X text 855 52 SCANNER;
#X msg 915 74 print 6c\$1w;
#X msg 915 115 print 7c\$1w;
#X msg 915 156 print 8c\$1w;
#X msg 915 197 print 9c\$1w;
#X msg 915 237 print 10c\$1w;
#X obj 944 262 hsl 128 15 0 255 0 0 empty empty empty -2 -8 0 10 -128992
-1 -1 4283 1;
#X obj 915 260 int;
#X msg 915 280 print 11c\$1w;
#X obj 915 337 s scanner;
#X obj 671 90 r scanner;
#X text 1004 280 DIMMER/STROBE/PROG;
#X text 1004 237 GOBO ROTATION;
#X text 997 196 GOBO WHEEL;
#X text 997 155 COLOUR WHEEL;
#X text 997 114 TILT;
#X text 997 74 PAN;
#X msg 816 283 86;
#X text 733 283 dimmer open;
#N canvas 116 145 449 300 slider-inverter 0;
#X obj 125 99 mod 2;
#X floatatom 125 120 5 0 0 0 - - -;
#X obj 202 120 -;
#X obj 92 143 spigot;
#X obj 158 195 hsl 128 15 0 255 0 0 empty empty empty -2 -8 0 10 -262144
-1 -1 8467 1;
#X msg 235 99 1;
#X obj 235 120 -;
#X obj 202 143 spigot;
#X obj 140 -7 inlet;
#X obj 178 257 outlet;
#X floatatom 90 175 5 0 0 0 - - -;
#X floatatom 209 171 5 0 0 0 - - -;
#X floatatom 70 30 8 0 0 0 - - -;
#X obj 178 236 line 0;
#X obj 125 65 / 255;
#X obj 172 64 mod 255;
#X msg 202 89 255;
#X floatatom 196 31 5 0 0 0 - - -;
#X msg 178 214 \$1 5000;
#X connect 0 0 1 0;
#X connect 1 0 3 1;
#X connect 1 0 6 1;
#X connect 1 0 5 0;
#X connect 2 0 7 0;
#X connect 3 0 4 0;
#X connect 3 0 10 0;
#X connect 4 0 18 0;
#X connect 5 0 6 0;
#X connect 6 0 7 1;
#X connect 7 0 4 0;
#X connect 7 0 11 0;
#X connect 8 0 12 0;
#X connect 8 0 14 0;
#X connect 8 0 15 0;
#X connect 13 0 9 0;
#X connect 14 0 0 0;
#X connect 15 0 2 1;
#X connect 15 0 3 0;
#X connect 15 0 16 0;
#X connect 16 0 2 0;
#X connect 17 0 14 0;
#X connect 17 0 15 0;
#X connect 18 0 13 0;
#X restore 1014 -87 pd slider-inverter;
#X floatatom 1015 -43 5 0 0 0 - - -;
#N canvas 738 285 450 300 red1 0;
#N canvas 116 155 450 300 slider-inverter 0;
#X obj 125 99 mod 2;
#X floatatom 125 120 5 0 0 0 - - -;
#X obj 202 120 -;
#X obj 92 143 spigot;
#X obj 158 195 hsl 128 15 0 255 0 0 empty empty empty -2 -8 0 10 -262144
-1 -1 8467 1;
#X msg 235 99 1;
#X obj 235 120 -;
#X obj 202 143 spigot;
#X obj 140 -7 inlet;
#X obj 178 257 outlet;
#X floatatom 90 175 5 0 0 0 - - -;
#X floatatom 209 171 5 0 0 0 - - -;
#X floatatom 70 30 8 0 0 0 - - -;
#X obj 178 236 line 0;
#X msg 178 214 \$1 2000;
#X obj 125 65 / 255;
#X obj 172 64 mod 255;
#X msg 202 89 255;
#X floatatom 196 31 5 0 0 0 - - -;
#X connect 0 0 1 0;
#X connect 1 0 3 1;
#X connect 1 0 6 1;
#X connect 1 0 5 0;
#X connect 2 0 7 0;
#X connect 3 0 4 0;
#X connect 3 0 10 0;
#X connect 4 0 14 0;
#X connect 5 0 6 0;
#X connect 6 0 7 1;
#X connect 7 0 4 0;
#X connect 7 0 11 0;
#X connect 8 0 12 0;
#X connect 8 0 15 0;
#X connect 8 0 16 0;
#X connect 13 0 9 0;
#X connect 14 0 13 0;
#X connect 15 0 0 0;
#X connect 16 0 2 1;
#X connect 16 0 3 0;
#X connect 16 0 17 0;
#X connect 17 0 2 0;
#X connect 18 0 15 0;
#X connect 18 0 16 0;
#X restore 78 18 pd slider-inverter;
#X obj 81 48 hsl 128 15 0 255 0 0 empty empty empty -2 -8 0 10 -258113
-1 -1 8467 1;
#X obj 78 79 int;
#X obj 78 138 s RGBW;
#X obj 78 -8 inlet;
#X msg 78 102 print 1c\$1w;
#X floatatom 20 95 5 0 0 0 - - -;
#X obj 21 119 outlet;
#X connect 0 0 1 0;
#X connect 1 0 2 0;
#X connect 2 0 5 0;
#X connect 2 0 6 0;
#X connect 2 0 7 0;
#X connect 4 0 0 0;
#X connect 5 0 3 0;
#X coords 0 -1 1 1 150 30 2 70 40;
#X restore 515 282 pd red1;
#X obj 515 255 r data;
#X floatatom 24 64 10 0 0 0 - - -;
#X obj 29 108 s data;
#X obj 1046 -127 r data;
#X floatatom 699 194 5 128 190 0 rotate_forward - -;
#X floatatom 743 194 5 193 255 1 rotate_backward - -;
#X obj 24 36 / 1000;
#X floatatom 862 112 5 0 0 0 - - -;
#X obj 978 27 maxlib/scale 0 255 90 255;
#X obj 1085 105 maxlib/scale 0 255 0 189;
#X obj 765 -135 f;
#X floatatom 792 34 5 0 0 0 - - -;
#X obj 747 -187 bng 15 250 50 0 empty empty empty 17 7 0 10 -262144
-1 -1;
#X obj 978 -1 maxlib/scale 0 255 0 230;
#X msg 792 -167 4;
#X floatatom 795 92 5 0 0 0 - - -;
#X obj 793 58 mod 218;
#X obj 765 -92 +;
#X msg 799 -123 6;
#X msg 833 -124 8;
#X msg 867 -124 10;
#X floatatom 764 -67 5 0 0 0 - - -;
#X obj 809 -212 loadbang;
#X floatatom 756 -1 5 0 0 0 - - -;
#X floatatom 809 -1 5 0 0 0 - - -;
#X obj 756 -38 moses 64;
#X floatatom 884 -1 5 0 0 0 - - -;
#X obj 824 -38 moses 162;
#X obj 931 -104 mod 2;
#X obj 931 -158 f;
#X obj 932 -129 + 1;
#X floatatom 931 -80 5 0 0 0 - - -;
#X msg 949 -186 1;
#X obj 919 -182 bng 15 250 50 0 empty empty empty 17 7 0 10 -262144
-1 -1;
#X obj 931 -54 select 0 1;
#X obj 926 -27 bng 15 250 50 0 empty empty empty 17 7 0 10 -262144
-1 -1;
#X obj 951 -22 bng 15 250 50 0 empty empty empty 17 7 0 10 -262144
-1 -1;
#X obj 858 -74 select 64;
#X obj 347 142 compare-any;
#X obj 307 199 spigot;
#X obj 346 173 tgl 15 0 empty empty empty 17 7 0 10 -262144 -1 -1 0
1;
#X obj 375 180 print compare;
#X obj 315 56 symbol;
#X obj 272 9 * 20;
#X connect 1 0 2 0;
#X connect 1 1 52 0;
#X connect 2 0 47 0;
#X connect 2 1 50 0;
#X connect 2 1 51 0;
#X connect 3 0 7 0;
#X connect 4 0 9 0;
#X connect 5 0 11 0;
#X connect 6 0 13 0;
#X connect 7 0 8 0;
#X connect 8 0 7 1;
#X connect 8 0 44 0;
#X connect 8 0 92 0;
#X connect 9 0 10 0;
#X connect 10 0 9 1;
#X connect 11 0 12 0;
#X connect 12 0 11 1;
#X connect 12 0 17 0;
#X connect 13 0 14 0;
#X connect 14 0 13 1;
#X connect 14 0 129 0;
#X connect 15 0 16 0;
#X connect 17 0 18 0;
#X connect 18 0 96 0;
#X connect 21 0 39 0;
#X connect 22 0 28 0;
#X connect 23 0 29 0;
#X connect 24 0 30 0;
#X connect 25 0 31 0;
#X connect 27 0 32 0;
#X connect 28 0 21 0;
#X connect 29 0 34 0;
#X connect 30 0 35 0;
#X connect 31 0 37 0;
#X connect 32 0 36 0;
#X connect 33 0 39 0;
#X connect 34 0 39 0;
#X connect 35 0 39 0;
#X connect 36 0 39 0;
#X connect 37 0 39 0;
#X connect 42 0 39 0;
#X connect 43 0 49 0;
#X connect 44 0 45 0;
#X connect 45 0 43 0;
#X connect 46 0 33 0;
#X connect 47 0 3 0;
#X connect 47 1 4 0;
#X connect 47 2 5 0;
#X connect 47 3 6 0;
#X connect 49 0 43 1;
#X connect 49 0 22 0;
#X connect 52 0 128 0;
#X connect 54 0 59 0;
#X connect 55 0 60 0;
#X connect 56 0 61 0;
#X connect 57 0 62 0;
#X connect 58 0 63 0;
#X connect 59 0 65 0;
#X connect 60 0 66 0;
#X connect 61 0 67 0;
#X connect 62 0 69 0;
#X connect 63 0 68 0;
#X connect 65 0 73 0;
#X connect 66 0 73 0;
#X connect 67 0 73 0;
#X connect 68 0 73 0;
#X connect 69 0 73 0;
#X connect 70 0 71 0;
#X connect 71 0 72 0;
#X connect 72 0 73 0;
#X connect 74 0 39 0;
#X connect 81 0 70 0;
#X connect 83 0 84 0;
#X connect 83 0 94 0;
#X connect 83 0 95 0;
#X connect 83 0 99 0;
#X connect 86 0 85 0;
#X connect 87 0 88 0;
#X connect 89 0 83 0;
#X connect 90 0 57 0;
#X connect 91 0 57 0;
#X connect 92 0 87 0;
#X connect 94 0 55 0;
#X connect 95 0 56 0;
#X connect 96 0 103 0;
#X connect 97 0 102 0;
#X connect 98 0 96 0;
#X connect 99 0 54 0;
#X connect 100 0 96 1;
#X connect 101 0 58 0;
#X connect 102 0 101 0;
#X connect 103 0 96 1;
#X connect 103 0 107 0;
#X connect 104 0 103 1;
#X connect 105 0 103 1;
#X connect 106 0 103 1;
#X connect 107 0 111 0;
#X connect 108 0 100 0;
#X connect 108 0 104 0;
#X connect 108 0 118 0;
#X connect 109 0 97 0;
#X connect 110 0 113 0;
#X connect 110 0 123 0;
#X connect 110 0 97 0;
#X connect 111 0 109 0;
#X connect 111 0 104 0;
#X connect 111 1 110 0;
#X connect 112 0 97 0;
#X connect 113 0 119 0;
#X connect 113 1 112 0;
#X connect 113 1 104 0;
#X connect 114 0 117 0;
#X connect 115 0 116 0;
#X connect 116 0 114 0;
#X connect 116 0 115 1;
#X connect 117 0 120 0;
#X connect 118 0 115 1;
#X connect 119 0 115 0;
#X connect 120 0 121 0;
#X connect 120 1 122 0;
#X connect 121 0 105 0;
#X connect 122 0 106 0;
#X connect 123 0 105 0;
#X connect 124 0 126 0;
#X connect 124 0 127 0;
#X connect 126 0 125 1;
#X connect 128 0 124 0;
#X connect 129 0 24 0;
